<svg version="1.1" id="Layer_1" xmlns="http://www.w3.org/2000/svg" xmlns:xlink="http://www.w3.org/1999/xlink" x="0px" y="0px"
	 width="100%" viewBox="0 0 512 512" enable-background="new 0 0 512 512" xml:space="preserve">

<path fill="currentColor" opacity="1.000000" stroke="currentColor" 
	d="
M457.531342,1.000000 
	C463.070099,4.422386 465.170898,8.759481 465.161438,15.289443 
	C464.950745,160.953445 464.967957,306.617859 465.115479,452.282013 
	C465.121490,458.201019 462.716736,461.822327 457.716309,464.833923 
	C337.580719,465.018066 217.815109,464.990112 98.049561,465.042999 
	C90.144455,465.046509 82.181541,465.177734 74.347626,466.108765 
	C60.959644,467.699890 54.491390,481.201782 59.300789,492.619324 
	C63.197903,501.871033 71.423111,504.915253 80.580841,504.923737 
	C203.511276,505.037567 326.441833,505.003510 449.372375,504.988770 
	C454.922516,504.988098 456.967987,502.873627 456.990448,497.241638 
	C457.026276,488.246826 456.938080,479.251038 457.055176,470.257629 
	C457.077148,468.570648 457.814758,466.893005 458.222137,465.211060 
	C464.995605,464.767670 464.998047,464.767670 464.999420,471.175110 
	C465.001587,481.136230 464.795471,491.103180 465.080627,501.056122 
	C465.238556,506.568359 462.762787,509.963715 458.088135,512.656982 
	C328.979095,513.000000 199.958206,513.000000 70.468658,513.000000 
	C63.147690,510.451508 56.506119,507.343689 53.138084,500.439453 
	C51.148354,496.360687 49.174358,491.707214 49.168575,487.309631 
	C48.966637,333.694733 48.997154,180.079529 49.005680,26.464373 
	C49.006325,14.811750 58.723988,3.285946 69.883392,1.369023 
	C199.020889,1.000000 328.041779,1.000000 457.531342,1.000000 
M457.000000,337.500000 
	C457.000000,230.861359 457.000977,124.222702 456.997650,17.584059 
	C456.997437,10.904658 455.170410,9.004455 448.694489,9.004156 
	C326.226593,8.998517 203.758667,8.981924 81.290840,9.084375 
	C77.486214,9.087559 73.430267,9.713245 69.926262,11.126629 
	C59.735912,15.237044 57.036743,24.089071 57.033325,34.016987 
	C56.984497,175.813156 57.000000,317.609344 57.000000,459.405518 
	C57.000000,460.802551 57.000000,462.199585 57.000000,464.297760 
	C63.820919,458.234375 71.137833,456.904419 79.236191,456.912720 
	C202.037201,457.038422 324.838409,457.000153 447.639557,456.999603 
	C455.491150,456.999573 456.999664,455.462708 456.999786,447.471436 
	C457.000275,411.147614 457.000000,374.823822 457.000000,337.500000 
z"/>
<path fill="currentColor" opacity="1.000000" stroke="currentColor" 
	d="
M201.000000,296.000000 
	C201.000000,287.845978 201.000000,280.191956 201.000000,272.346375 
	C187.920044,269.346802 176.630646,263.422394 167.819550,253.301987 
	C158.841400,242.989670 153.600113,231.151352 152.964661,217.333923 
	C152.446884,206.075043 153.943359,195.358887 159.276093,185.209137 
	C168.055023,168.500259 181.669678,158.212601 199.912384,154.098969 
	C204.333099,153.102097 209.030243,153.148407 213.601715,153.132431 
	C214.730530,153.128479 216.835190,154.802078 216.798203,155.628754 
	C216.717270,157.438446 215.901581,160.439453 214.766144,160.760300 
	C210.452896,161.979065 205.814941,162.001144 201.439545,163.056061 
	C186.871460,166.568436 176.018372,175.029953 168.438507,187.995346 
	C160.325668,201.872375 159.647369,216.324524 165.080750,231.023453 
	C169.229187,242.246277 176.608154,251.001770 187.211243,257.117950 
	C194.687180,261.430328 202.309967,264.157562 211.031281,264.118591 
	C214.470505,264.103210 218.545853,265.480225 216.747025,270.163147 
	C216.029434,272.031311 212.514587,272.824982 209.352692,274.634552 
	C209.352692,291.462677 209.352692,309.867554 209.352692,328.636597 
	C254.134003,328.636597 299.204681,328.636597 344.637878,328.636597 
	C344.637878,310.400391 344.637878,291.865906 344.637878,272.999878 
	C343.308014,272.999878 341.873383,273.357239 340.763428,272.909576 
	C339.370575,272.347809 337.443298,271.308075 337.179901,270.148926 
	C336.724243,268.143494 336.121124,265.359253 339.838562,264.940582 
	C343.829254,264.491180 347.832977,263.916016 351.739990,263.005127 
	C373.629303,257.901886 387.062225,243.633377 391.517303,222.285553 
	C394.504242,207.972626 391.323944,193.929733 381.541260,181.874405 
	C373.462219,171.918442 363.559326,165.366196 351.130707,162.642960 
	C347.805481,161.914368 344.332153,161.877167 340.934875,161.457321 
	C337.752716,161.064041 336.700897,159.253052 336.932495,156.062637 
	C337.202820,152.339188 339.734863,153.073761 341.968658,153.002060 
	C369.250610,152.126389 394.570862,172.452362 399.869324,199.717239 
	C405.013000,226.185791 396.502747,247.860733 374.674652,263.470428 
	C368.561249,267.842255 360.778992,269.880432 353.000000,273.326843 
	C353.000000,278.455200 353.000000,284.762695 353.000000,291.070221 
	C353.000000,310.043091 352.937317,329.016388 353.057587,347.988495 
	C353.079346,351.418365 352.488312,353.089233 348.459930,353.078888 
	C300.796722,352.956207 253.133011,352.967773 205.469681,353.064880 
	C201.899063,353.072144 200.911575,351.846161 200.938217,348.418030 
	C201.072693,331.112915 201.000015,313.806183 201.000000,296.000000 
M281.031738,342.823395 
	C285.090576,339.558716 287.838348,340.207611 289.696289,344.855621 
	C292.006409,344.855621 294.309021,344.855621 296.611633,344.855621 
	C297.624023,342.884399 299.160278,341.150238 300.634735,341.201202 
	C302.466553,341.264587 304.247284,342.804108 306.050049,343.706085 
	C305.946228,344.275940 305.842407,344.845825 305.738586,345.415680 
	C308.146606,344.928955 312.309570,344.962494 312.636749,343.858917 
	C313.656708,340.418488 315.966400,340.670319 318.037445,341.151337 
	C319.508698,341.493073 320.656189,343.228699 322.579926,344.886658 
	C323.883972,344.886658 326.186401,344.886658 328.488831,344.886658 
	C328.328491,344.479065 328.168121,344.071472 328.007782,343.663910 
	C329.673523,342.776001 331.340424,341.192810 333.004730,341.195557 
	C334.672119,341.198273 336.336914,342.784332 338.002869,343.676392 
	C337.843964,344.031372 337.685059,344.386383 337.526154,344.741364 
	C339.951508,344.741364 342.376862,344.741364 344.792328,344.741364 
	C344.996063,342.082092 345.180328,339.677124 345.372955,337.163055 
	C299.828094,337.163055 254.072495,337.163055 208.598511,337.163055 
	C208.846985,339.845856 209.081955,342.383026 209.372559,345.520721 
	C212.163986,344.934967 216.294540,344.960175 216.640152,343.828979 
	C217.689499,340.394440 220.008728,340.676575 222.064972,341.153870 
	C223.535034,341.495087 224.676956,343.249847 226.545700,344.880249 
	C227.909256,344.880249 230.211700,344.880249 232.514145,344.880249 
	C232.370834,344.454346 232.227524,344.028473 232.084213,343.602570 
	C233.733856,342.735107 235.395218,341.167236 237.029892,341.194550 
	C238.709198,341.222626 240.362442,342.808746 242.027100,343.713013 
	C241.866592,344.107117 241.706100,344.501221 241.545593,344.895325 
	C243.847992,344.895325 246.150391,344.895325 248.452789,344.895325 
	C249.521179,342.989655 251.068970,341.096741 252.447678,341.212738 
	C254.471603,341.383087 256.374664,342.989655 258.329224,343.984283 
	C258.197723,344.293274 258.066223,344.602264 257.934723,344.911255 
	C260.087585,344.911255 262.240417,344.911255 264.393280,344.911255 
	C265.429199,343.053772 266.969849,341.127411 268.383911,341.216217 
	C270.391785,341.342316 272.306488,342.951385 274.261017,343.926788 
	C274.178955,344.473450 274.096924,345.020142 274.014893,345.566833 
	C276.341187,344.945190 278.667480,344.323547 281.031738,342.823395 
z"/>
<path fill="currentColor" opacity="1.000000" stroke="currentColor" 
	d="
M312.000000,89.000000 
	C255.351730,89.000000 199.203293,88.943016 143.055481,89.102242 
	C138.279861,89.115776 136.698639,87.906837 136.887711,83.002487 
	C137.266083,73.186951 137.124939,63.344154 136.933380,53.517776 
	C136.864853,50.001720 138.046158,48.936657 141.532944,48.939606 
	C231.836624,49.016014 322.140381,49.015545 412.444061,48.940914 
	C415.900940,48.938057 417.135193,49.949085 417.067871,53.494801 
	C416.875000,63.654476 416.828186,73.824539 417.085602,83.981354 
	C417.186798,87.975266 415.927826,89.098534 411.967072,89.081421 
	C378.811890,88.938194 345.655823,89.000000 312.000000,89.000000 
M348.500000,57.000000 
	C280.742157,57.000000 212.984314,57.000000 145.286407,57.000000 
	C145.286407,65.308121 145.286407,73.047943 145.286407,80.717316 
	C233.306290,80.717316 321.039459,80.717316 408.713623,80.717316 
	C408.713623,72.691948 408.713623,64.952126 408.713623,57.000000 
	C388.785370,57.000000 369.142700,57.000000 348.500000,57.000000 
z"/>
<path fill="currentColor" opacity="1.000000" stroke="currentColor" 
	d="
M96.999237,28.392307 
	C96.999931,164.174362 97.010384,299.494232 96.902184,434.814026 
	C96.900536,436.870758 95.954895,440.140564 94.545341,440.749054 
	C90.699135,442.409424 89.010300,440.709808 89.007324,436.107147 
	C88.991669,411.942871 89.000000,387.778625 89.000000,363.614349 
	C89.000000,252.625381 88.988213,141.636414 89.099533,30.647560 
	C89.101418,28.769526 90.148804,25.855511 91.503105,25.273109 
	C93.275734,24.510817 96.770912,23.801920 96.999237,28.392307 
z"/>
<path fill="currentColor" opacity="1.000000" stroke="currentColor" 
	d="
M272.000000,393.000000 
	C310.986969,393.000000 349.474091,393.053497 387.960602,392.919098 
	C391.906494,392.905304 393.806152,394.057159 392.884521,397.971283 
	C392.608246,399.144653 391.080292,400.156128 389.918793,400.931885 
	C389.342529,401.316772 388.297302,400.999939 387.464264,400.999939 
	C313.822540,401.000000 240.180832,401.007568 166.539124,400.963928 
	C164.307068,400.962616 161.332047,402.129639 160.948120,398.006439 
	C160.575363,394.003052 162.085571,392.902893 166.036057,392.918610 
	C201.190262,393.058533 236.345245,393.000000 272.000000,393.000000 
z"/>
<path fill="currentColor" opacity="1.000000" stroke="currentColor" 
	d="
M293.650452,130.013306 
	C301.178925,133.281860 308.703552,135.846054 315.263947,139.951218 
	C326.258453,146.831070 332.638092,157.640198 336.703979,169.697342 
	C337.426239,171.839294 338.830994,175.761490 334.816528,176.873886 
	C331.158325,177.887589 329.199738,176.184570 327.843353,172.204071 
	C321.544861,153.720062 309.122192,141.964645 289.303070,138.985809 
	C272.923462,136.523926 257.273956,137.427933 243.323593,147.917145 
	C234.829498,154.303802 229.341873,162.564911 225.930161,172.473969 
	C225.357468,174.137344 224.180664,176.272018 222.751801,176.831009 
	C218.830490,178.365036 216.353287,176.530334 217.158905,172.308838 
	C218.043869,167.671677 219.524673,162.901627 221.867569,158.835861 
	C228.675140,147.022385 237.927399,137.709412 251.141098,132.971146 
	C263.740387,128.453201 276.613953,127.882668 289.718842,129.932541 
	C290.859314,130.110931 292.047272,129.985825 293.650452,130.013306 
z"/>
<path fill="currentColor" opacity="1.000000" stroke="currentColor" 
	d="
M320.000000,409.000000 
	C327.329407,409.000031 334.161316,409.107117 340.987213,408.951324 
	C344.035950,408.881744 345.068878,410.008728 345.076202,413.024384 
	C345.083649,416.093719 343.930878,417.049377 340.939148,417.044769 
	C298.296814,416.978973 255.654343,416.978027 213.012024,417.046143 
	C209.969604,417.050995 208.986404,415.984741 208.915131,412.977722 
	C208.830048,409.388580 210.617111,408.955017 213.560318,408.960175 
	C248.873459,409.021820 284.186737,409.000000 320.000000,409.000000 
z"/>
<path fill="currentColor" opacity="1.000000" stroke="currentColor" 
	d="
M235.000000,497.000000 
	C182.010086,497.000000 129.520187,497.000824 77.030281,496.999146 
	C68.969162,496.998871 64.996796,493.006317 65.000000,484.924866 
	C65.003136,477.017944 69.103302,473.000549 77.180580,473.000488 
	C199.157120,472.999786 321.133667,472.995453 443.110199,473.031067 
	C445.673218,473.031830 449.078033,471.796478 449.074799,476.648834 
	C449.072662,479.822845 448.167450,481.403687 444.810425,481.017426 
	C443.823669,480.903900 442.812836,481.000000 441.813019,481.000000 
	C322.002716,481.000000 202.192444,480.996368 82.382149,481.019073 
	C79.076172,481.019714 74.317520,480.054108 74.242874,484.829102 
	C74.161751,490.018005 79.092339,488.977692 82.532753,488.978424 
	C202.676315,489.004272 322.819885,488.992188 442.963409,489.059113 
	C445.237793,489.060364 448.512787,487.526764 449.057404,491.994873 
	C449.626526,496.663940 447.205292,497.060242 443.459442,497.056091 
	C374.139709,496.979553 304.819824,497.000000 235.000000,497.000000 
z"/>
<path fill="currentColor" opacity=".000000" stroke="none" 
	d="
M375.416260,72.825867 
	C310.664703,72.985039 246.342117,72.983925 182.019547,73.027802 
	C179.098114,73.029793 176.887283,73.046944 176.889175,68.980583 
	C176.891098,64.873322 179.177597,64.974243 182.058273,64.975700 
	C245.214462,65.007538 308.370667,64.998199 371.526855,65.002953 
	C377.485352,65.003403 378.471710,66.775429 375.416260,72.825867 
z"/>
</svg>